#!OML:ASF F:\VICON\USERDATA\INSTALL\rory3\rory3.ASF
:FULLY-SPECIFIED
:DEGREES
799
root 9.41171 17.8315 -1.35527 -177.16 -29.3906 176.702
lowerback 12.0185 0.85162 0.570321
upperback 0.603001 1.11582 -0.333761
thorax -6.09334 0.495794 -0.859439
lowerneck -12.4505 3.14777 -12.8019
upperneck 43.8211 1.97209 4.58812
head 18.331 -2.28665 4.35279
rclavicle 4.02539e-014 -3.97569e-015
rhumerus -35.2379 -12.4864 -72.239
rradius 33.2304
rwrist 6.93985
rhand -12.5079 11.0429
rfingers 7.12502
rthumb 13.5675 -18.4951
lclavicle 4.02539e-014 -3.97569e-015
lhumerus -31.9397 11.2379 77.4353
lradius 32.1071
lwrist -4.07969
lhand -21.4018 20.0064
lfingers 7.12502
lthumb 4.98643 49.9277
rfemur -8.56267 -1.25216 17.9452
rtibia 32.938
rfoot -20.2747 -5.51878
rtoes 0.139172
lfemur -15.4747 4.027 -22.3362
ltibia 34.9509
lfoot -19.5369 -18.8754
ltoes -26.1072
800
root 9.38659 17.8422 -1.31038 -177.195 -29.4485 176.81
lowerback 12.6334 0.873547 0.743517
upperback 0.206833 1.17998 -0.406515
thorax -6.85293 0.5186 -1.06209
lowerneck -12.0709 3.18678 -12.7627
upperneck 43.9872 1.75115 4.82826
head 18.3489 -2.37714 4.41483
rclavicle 8.94034e-014 -4.77083e-015
rhumerus -35.9377 -12.7602 -71.9302
rradius 33.8706
rwrist 6.73279
rhand -12.5032 10.4111
rfingers 7.12502
rthumb 13.5721 -19.1265
lclavicle 8.94034e-014 -4.77083e-015
lhumerus -32.4833 10.4622 77.525
lradius 31.9574
lwrist -4.42786
lhand -21.9273 19.4727
lfingers 7.12502
lthumb 4.47892 49.4054
rfemur -8.46935 -1.12401 17.9159
rtibia 32.5462
rfoot -19.9312 -5.69132
rtoes -0.269616
lfemur -15.7052 3.7703 -21.8429
ltibia 35.3395
lfoot -20.3645 -15.6691
ltoes -27.2992
801
root 9.36169 17.8542 -1.26292 -177.368 -29.4486 177.11
lowerback 11.6441 0.692401 0.469602
upperback 1.19458 0.880206 -0.0461557
thorax -5.27076 0.381288 -0.449834
lowerneck -13.3269 3.00595 -12.892
upperneck 43.5257 2.11587 4.60805
head 18.3708 -2.16621 4.4293
rclavicle 4.80562e-014 -8.34896e-015
rhumerus -33.8936 -12.55 -72.1682
rradius 34.1367
rwrist 6.28183
rhand -13.119 10.0799
rfingers 7.12502
rthumb 12.9785 -19.4964
lclavicle 4.80562e-014 -8.34896e-015
lhumerus -30.9963 11.4419 77.987
lradius 31.6342
lwrist -4.92638
lhand -21.9689 19.5588
lfingers 7.12502
lthumb 4.43884 49.4923
rfemur -8.34883 -1.06525 18.0532
rtibia 32.1336
rfoot -19.5771 -5.71992
rtoes -0.777559
lfemur -15.8385 3.46358 -21.1167
ltibia 35.6545
lfoot -20.5464 -12.7619
ltoes -26.69
802
root 9.33393 17.8689 -1.22159 -177.586 -29.4328 177.33
lowerback 12.1675 0.661505 0.898023
upperback 1.00192 0.889882 -0.283892
thorax -5.75467 0.371761 -0.951172
lowerneck -13.185 3.0586 -12.6054
upperneck 43.5831 1.91743 4.91312
head 18.3806 -2.17025 4.48915
rclavicle 1.0138e-014 7.95139e-016
rhumerus -34.2126 -12.7947 -72.3719
rradius 34.4967
rwrist 5.74334
rhand -13.8085 10.1716
rfingers 7.12502
rthumb 12.3138 -19.4459
lclavicle 1.0138e-014 7.95139e-016
lhumerus -31.1948 10.8177 77.7328
lradius 31.3542
lwrist -5.31083
lhand -21.6049 19.9994
lfingers 7.12502
lthumb 4.79024 49.9252
rfemur -8.11914 -0.962667 18.1106
rtibia 31.7284
rfoot -19.2657 -5.73244
rtoes -1.11524
lfemur -15.8208 3.18361 -20.4188
ltibia 35.8761
lfoot -20.5532 -10.1062
ltoes -25.9679
803
root 9.30335 17.884 -1.18377 -177.784 -29.4706 177.419
lowerback 12.8583 0.689352 0.789149
upperback 0.645842 0.934308 -0.202198
thorax -6.52014 0.395056 -0.825412
lowerneck -12.7036 3.13751 -12.5438
upperneck 43.7199 1.85747 4.84554
head 18.3425 -2.23434 4.41892
rclavicle 5.1684e-014 -5.1684e-015
rhumerus -34.7135 -12.5171 -72.0762
rradius 34.8133
rwrist 5.2239
rhand -14.1732 10.1337
rfingers 7.12502
rthumb 11.9621 -19.5045
lclavicle 5.1684e-014 -5.1684e-015
lhumerus -31.7476 10.6583 77.8174
lradius 30.9653
lwrist -5.89618
lhand -21.5384 20.2277
lfingers 7.12502
lthumb 4.85447 50.1521
rfemur -7.81089 -1.12792 18.004
rtibia 31.3123
rfoot -18.9564 -5.57291
rtoes -1.65432
lfemur -15.7109 2.99503 -19.8143
ltibia 35.9972
lfoot -20.1232 -7.84487
ltoes -24.3599
804
root 9.27181 17.8966 -1.14298 -177.898 -29.543 177.363
lowerback 11.9944 0.522909 0.153859
upperback 1.54303 0.599094 0.106874
thorax -5.10738 0.241383 -0.067217
lowerneck -13.6978 3.01763 -12.6518
upperneck 43.3614 2.26254 4.45463
head 18.3592 -2.05553 4.34609
rclavicle -5.96851e-014 6.36111e-015
rhumerus -32.8981 -12.3332 -72.1858
rradius 34.9894
rwrist 5.06065
rhand -14.3488 9.94072
rfingers 7.12502
rthumb 11.7928 -19.7073
lclavicle -5.96851e-014 6.36111e-015
lhumerus -30.4595 11.9969 78.1607
lradius 30.4738
lwrist -6.51586
lhand -21.6889 20.0279
lfingers 7.12502
lthumb 4.70919 49.9555
rfemur -7.53323 -1.36501 17.7437
rtibia 30.9246
rfoot -18.6773 -5.40566
rtoes -2.27598
lfemur -15.5348 2.72072 -19.3173
ltibia 35.9753
lfoot -19.2053 -6.02097
ltoes -22.3671
805
root 9.23712 17.9081 -1.10578 -177.986 -29.5447 177.168
lowerback 12.3075 0.54091 0.121374
upperback 1.5073 0.603336 -0.13814
thorax -5.31634 0.240612 -0.308835
lowerneck -13.6798 2.99298 -12.5483
upperneck 43.4461 2.03559 4.74543
head 18.4249 -2.10269 4.43163
rclavicle -9.38264e-014 1.39149e-014
rhumerus -33.2701 -13.1035 -72.1035
rradius 35.5577
rwrist 5.02514
rhand -14.544 9.97401
rfingers 7.12502
rthumb 11.6045 -19.6847
lclavicle -9.38264e-014 1.39149e-014
lhumerus -30.4799 11.6195 78.0186
lradius 30.2459
lwrist -6.77057
lhand -21.5944 20.2869
lfingers 7.12502
lthumb 4.8004 50.2125
rfemur -7.22586 -1.39978 17.364
rtibia 30.6066
rfoot -18.508 -5.32895
rtoes -2.38305
lfemur -15.1967 2.37298 -18.9244
ltibia 35.7939
lfoot -18.1634 -4.27121
ltoes -21.1995
806
root 9.20248 17.9206 -1.07336 -178.016 -29.5668 176.838
lowerback 12.4896 0.539013 -0.181237
upperback 1.54067 0.543638 -0.322296
thorax -5.38389 0.213413 -0.322272
lowerneck -13.6695 2.99645 -12.4821
upperneck 43.5076 1.90336 4.95483
head 18.4694 -2.12686 4.49998
rclavicle -9.74045e-015 -1.90833e-014
rhumerus -33.3918 -13.5756 -72.0314
rradius 35.9997
rwrist 4.86445
rhand -14.8831 10.0846
rfingers 7.12502
rthumb 11.2775 -19.5922
lclavicle -9.74045e-015 -1.90833e-014
lhumerus -30.4565 11.7104 77.8488
lradius 30.0379
lwrist -7.27078
lhand -21.3609 20.678
lfingers 7.12502
lthumb 5.02585 50.5984
rfemur -6.91427 -1.25449 16.8837
rtibia 30.3563
rfoot -18.3697 -5.42443
rtoes -2.26022
lfemur -14.8122 2.06404 -18.6282
ltibia 35.4832
lfoot -16.9491 -2.65123
ltoes -19.5821
807
root 9.16911 17.9319 -1.03802 -177.903 -29.6756 176.315
lowerback 12.5562 0.506857 -0.795539
upperback 1.6382 0.401694 -0.442064
thorax -5.32267 0.151309 -0.0767948
lowerneck -13.6329 3.00679 -12.368
upperneck 43.4478 1.9241 4.85104
head 18.4239 -2.10741 4.42934
rclavicle 2.35063e-014 1.19271e-014
rhumerus -33.2476 -13.789 -71.9007
rradius 36.3287
rwrist 4.57318
rhand -15.3347 10.3748
rfingers 7.12502
rthumb 10.8419 -19.3253
lclavicle 2.35063e-014 1.19271e-014
lhumerus -30.397 12.077 77.7548
lradius 29.8777
lwrist -7.75251
lhand -21.3815 20.4457
lfingers 7.12502
lthumb 5.00602 50.3666
rfemur -6.66419 -1.13376 16.2323
rtibia 30.1234
rfoot -18.1822 -5.5906
rtoes -2.63482
lfemur -14.4535 1.57779 -18.4886
ltibia 35.0794
lfoot -15.5051 -1.30776
ltoes -16.5901
808
root 9.13381 17.9425 -0.998813 -177.896 -29.735 176.097
lowerback 12.6666 0.489064 -1.11296
upperback 1.68269 0.323264 -0.51964
thorax -5.3383 0.115917 0.0340643
lowerneck -13.5906 3.02702 -12.0699
upperneck 43.4205 1.93799 4.63565
head 18.4039 -2.0798 4.2715
rclavicle -1.56046e-014 1.43125e-014
rhumerus -33.1742 -14.0197 -71.8126
rradius 36.6058
rwrist 4.0719
rhand -16.0787 10.8943
rfingers 7.12502
rthumb 10.1242 -18.8421
lclavicle -1.56046e-014 1.43125e-014
lhumerus -30.4366 12.1299 77.7108
lradius 29.922
lwrist -7.84947
lhand -21.6443 20.2907
lfingers 7.12502
lthumb 4.75224 50.2174
rfemur -6.47901 -1.09409 15.8447
rtibia 29.8854
rfoot -18.0522 -5.57393
rtoes -2.41233
lfemur -14.1168 1.0184 -18.0325
ltibia 34.6478
lfoot -14.2596 -0.189444
ltoes -13.8596
809
root 9.0939 17.9595 -0.960486 -177.955 -29.693 176.155
lowerback 12.7458 0.510244 -1.10895
upperback 1.67365 0.346837 -0.564291
thorax -5.39163 0.126755 -0.0195469
lowerneck -13.6312 3.02159 -12.0112
upperneck 43.4653 1.88768 4.6839
head 18.4481 -2.08909 4.2782
rclavicle -1.87852e-014 3.77691e-015
rhumerus -33.2437 -14.1972 -71.7471
rradius 36.9631
rwrist 3.56335
rhand -16.5457 10.9681
rfingers 7.12502
rthumb 9.67371 -18.7898
lclavicle -1.87852e-014 3.77691e-015
lhumerus -30.5023 12.0357 77.6913
lradius 30.0078
lwrist -7.73647
lhand -21.8984 20.4454
lfingers 7.12502
lthumb 4.5069 50.3775
rfemur -6.38016 -1.07518 15.7183
rtibia 29.6283
rfoot -17.8641 -5.61916
rtoes -3.00429
lfemur -13.8796 0.46781 -17.3057
ltibia 34.2542
lfoot -13.4139 1.00274
ltoes -11.9008
